<svg width="33" height="31" viewBox="0 0 33 31" fill="none" xmlns="http://www.w3.org/2000/svg">
<g id="Group">
<path id="Vector" d="M3.16602 0.100676C1.67158 0.397358 0.421921 1.59014 0.106285 3.0009C-0.0354285 3.63665 -0.0354285 27.3713 0.106285 28.007C0.351064 29.0969 1.15626 30.0899 2.20623 30.5742C3.16602 31.0162 2.85682 31.0041 10.3419 31.0041H17.0282L17.2794 30.8709C17.4405 30.7861 17.5757 30.6469 17.6595 30.4895C17.7883 30.2412 17.7883 30.1443 17.7754 24.4468C17.7561 18.6706 17.7561 18.6585 17.6208 18.4889C17.5435 18.3981 17.3889 18.2649 17.2665 18.1983C17.0669 18.0833 16.9123 18.0772 15.1988 18.0591L13.3436 18.0409V16.7391V15.4434H15.2375C17.9687 15.4434 17.7883 15.6432 17.7883 12.628C17.7883 10.2363 17.827 9.95781 18.2199 9.20702C18.542 8.58338 19.2505 7.91736 19.914 7.61462C20.687 7.25739 21.0477 7.20895 23.1541 7.20895H25.0028V8.51072V9.81249H23.2314C21.2989 9.81249 21.1894 9.83066 20.8674 10.1516C20.7707 10.2484 20.6612 10.4059 20.629 10.4967C20.5839 10.6057 20.5582 11.4109 20.5582 12.7067C20.5582 14.9832 20.5646 15.0317 21.0026 15.3042C21.2152 15.4434 21.2539 15.4434 23.109 15.4434H25.0028V16.7391V18.0409L23.1541 18.0591C21.4342 18.0772 21.2796 18.0833 21.0799 18.1983C20.9575 18.2649 20.8029 18.3981 20.7256 18.4889C20.5904 18.6585 20.5904 18.6706 20.5711 24.4771L20.5582 30.2897L20.6934 30.5197C20.7707 30.6469 20.9382 30.8043 21.0735 30.877C21.3118 31.0041 21.3634 31.0041 25.3313 31.0041C29.8533 31.0041 29.8726 30.9981 30.7938 30.5742C31.8437 30.0899 32.6489 29.0969 32.8937 28.007C33.0354 27.3713 33.0354 3.63665 32.8937 3.0009C32.5781 1.57198 31.322 0.391304 29.8018 0.0946198C29.1447 -0.0325298 3.81017 -0.0325298 3.16602 0.100676ZM29.3187 1.88077C30.214 2.03819 30.826 2.6134 30.9935 3.44895C31.0836 3.897 31.0836 27.1109 30.9935 27.559C30.826 28.3945 30.214 28.9697 29.3187 29.1271C29.119 29.1635 27.631 29.1877 25.7372 29.1877H22.4906V24.5619V19.93L24.378 19.9118C26.5359 19.8937 26.5874 19.8815 26.858 19.379C27.0061 19.1065 27.0061 19.1005 26.9868 16.6725L26.9675 14.2446L26.7678 14.0084C26.6583 13.8813 26.4715 13.7481 26.3491 13.7057C26.201 13.6573 25.5439 13.633 24.3136 13.633L22.4906 13.627V12.628V11.6289H24.3651C26.4651 11.6289 26.5552 11.6168 26.8193 11.2111C26.9675 10.9932 26.9675 10.9871 26.9675 8.49861C26.9675 6.0646 26.9675 6.00406 26.8322 5.83452C26.7614 5.7437 26.6003 5.60444 26.4779 5.52573L26.2589 5.38647L23.4569 5.40464L20.6548 5.42886L20.0879 5.59233C18.0202 6.19781 16.6353 7.51774 16.0298 9.47948C15.9138 9.85488 15.8945 10.1152 15.8687 11.7621L15.843 13.627H14.0136C11.9587 13.627 11.875 13.6391 11.5658 14.0266L11.379 14.2506L11.3597 16.6786C11.3339 20.1116 11.1535 19.8815 13.9749 19.9118L15.8558 19.93V24.5619V29.1877H9.93607C6.19354 29.1877 3.89391 29.1635 3.6749 29.1271C2.78597 28.9697 2.17402 28.3945 2.00654 27.5529C1.91636 27.1109 1.91636 3.89095 2.00654 3.44895C2.17402 2.63762 2.79241 2.03819 3.62981 1.88683C4.03562 1.80812 28.9 1.80812 29.3187 1.88077Z" fill="white"/>
</g>
</svg>
