<svg width="38" height="38" viewBox="0 0 38 38" fill="none" xmlns="http://www.w3.org/2000/svg">
<g id="icon3 1">
<g id="Group">
<path id="Vector" d="M10.1164 4.54308C7.29597 5.43819 5.33686 7.44797 4.49242 10.2853C4.08708 11.6533 4.08708 26.3297 4.49242 27.7146C5.33686 30.5857 7.3973 32.6462 10.2853 33.5075C11.6533 33.9129 26.3466 33.9129 27.7146 33.5075C30.6026 32.6462 32.6631 30.5857 33.5075 27.7146C33.9129 26.3297 33.9129 11.6533 33.5075 10.2853C32.6462 7.3973 30.5857 5.33685 27.7146 4.49241C26.9209 4.25596 25.6542 4.22219 18.9324 4.23908C11.8729 4.23908 10.9609 4.27285 10.1164 4.54308ZM28.1706 7.14396C29.3022 7.73508 30.2649 8.69774 30.856 9.8293L31.3289 10.7244V19V27.2755L30.856 28.1706C30.2649 29.3022 29.3022 30.2649 28.1706 30.856L27.2755 31.3289H19H10.7244L9.8293 30.856C8.69775 30.2649 7.73508 29.3022 7.14397 28.1706L6.67108 27.2755V19V10.7244L7.14397 9.8293C7.90397 8.37685 9.27197 7.22841 10.8089 6.73863C11.0453 6.67108 14.8453 6.62041 19.2533 6.6373L27.2755 6.67108L28.1706 7.14396Z" fill="white"/>
<path id="Vector_2" d="M26.0764 9.62674C24.9617 10.0827 24.6409 11.6534 25.4853 12.5147C26.4311 13.4436 28.1706 12.9539 28.4577 11.6703C28.6266 10.9103 28.1537 9.9983 27.4613 9.71119C26.7857 9.42408 26.5831 9.42408 26.0764 9.62674Z" fill="white"/>
<path id="Vector_3" d="M17.7671 12.008C16.416 12.2444 15.048 12.9538 14.0009 14.0009C11.2142 16.8044 11.2142 21.1956 14.0009 23.9991C16.8044 26.7858 21.1956 26.7858 23.9991 23.9991C28.2551 19.7262 25.6373 12.5147 19.5911 11.9404C19.0844 11.8898 18.2569 11.9236 17.7671 12.008ZM20.8409 14.6089C21.736 14.9804 22.8676 16.0951 23.3236 17.024C23.6107 17.6151 23.712 18.1218 23.712 19C23.712 20.4524 23.256 21.4658 22.2089 22.4453C21.1787 23.3911 20.4018 23.6951 19 23.6951C17.5982 23.6951 16.8213 23.3911 15.7911 22.4453C14.744 21.4658 14.288 20.4524 14.288 19C14.288 17.5307 14.744 16.5342 15.808 15.5378C17.2267 14.2373 19.1013 13.8827 20.8409 14.6089Z" fill="white"/>
</g>
</g>
</svg>
