<svg width="34" height="33" viewBox="0 0 34 33" fill="none" xmlns="http://www.w3.org/2000/svg">
<g id="Group">
<path id="Vector" d="M15.7034 0.03228C13.1866 0.264313 11.314 0.779934 9.19561 1.82408C6.68545 3.06802 4.43428 5.02739 2.7874 7.39927C2.09678 8.40474 1.24678 10.0999 0.835059 11.2987C0.509668 12.2655 0.244043 13.3676 0.084668 14.4569C-0.0282227 15.2174 -0.0282227 17.7569 0.084668 18.5174C0.363574 20.4188 0.881543 22.0817 1.6917 23.6737C2.60146 25.4784 3.49795 26.6901 4.97217 28.1274C6.43975 29.5454 7.70811 30.4284 9.49443 31.2792C10.7429 31.8721 11.5464 32.1622 12.8147 32.4715C16.1351 33.2836 19.4687 33.129 22.7093 32.0139C23.7054 31.6723 25.4187 30.8344 26.2952 30.2672C28.3007 28.9653 30.1003 27.1735 31.4019 25.1883C31.88 24.46 32.6503 22.9131 32.9624 22.0559C34.5229 17.7891 34.2507 13.2129 32.1987 9.2104C31.3753 7.59907 30.4522 6.32935 29.1573 5.03384C27.7362 3.60298 26.3019 2.59107 24.4358 1.69517C22.4702 0.754154 20.6374 0.244972 18.4593 0.0516129C17.7819 -0.00639343 16.2479 -0.0192833 15.7034 0.03228ZM19.3226 2.23658C23.5327 2.92622 27.0987 5.18208 29.4362 8.64966C30.5651 10.3126 31.3354 12.2784 31.6874 14.3924C31.8468 15.3786 31.8468 17.5958 31.6874 18.5819C30.9702 22.8874 28.5397 26.4581 24.7679 28.7655C23.1542 29.7516 21.2019 30.4477 19.1233 30.7764C18.1007 30.9311 15.823 30.9311 14.8069 30.77C11.5065 30.2479 8.78389 28.9137 6.46631 26.6708C4.17529 24.46 2.78076 21.7852 2.24287 18.5819C2.0835 17.5958 2.0835 15.3786 2.24287 14.3924C2.94014 10.2223 5.21123 6.76763 8.77061 4.46021C10.8026 3.13892 13.253 2.31392 15.7698 2.08833C16.487 2.02388 18.5456 2.11411 19.3226 2.23658Z" fill="white"/>
<path id="Vector_2" d="M24.1038 8.16635C22.2909 8.83022 6.19405 14.979 6.04131 15.0628C5.5499 15.34 5.37725 16.0361 5.68936 16.4872C5.79561 16.6355 6.48623 17.0996 7.90069 17.9826C9.03623 18.6851 10.0722 19.3167 10.205 19.3876C10.6233 19.6068 10.9022 19.5617 12.0112 19.0912C13.4589 18.4789 13.3991 18.4853 12.9675 18.9171C12.7616 19.1234 12.5558 19.3747 12.5226 19.4714C12.4097 19.7679 12.423 24.0412 12.5425 24.3119C12.7351 24.7501 13.3062 25.008 13.7976 24.8662C14.0233 24.8017 14.3022 24.5697 15.2917 23.6222L16.5003 22.4556L19.0769 23.6931C20.4913 24.3763 21.7198 24.9371 21.8128 24.9306C22.0851 24.9242 22.5101 24.705 22.6694 24.4859C22.7956 24.3119 23.0413 23.0937 24.2565 16.629L25.6909 8.97202L25.5382 8.66909C25.2726 8.13412 24.7214 7.94077 24.1038 8.16635ZM23.1808 10.8605C23.1608 10.9249 22.6827 13.4708 22.1183 16.5195C21.5472 19.5681 21.069 22.1269 21.0491 22.2042C21.0159 22.3396 20.8897 22.288 18.7515 21.2568C17.3503 20.5736 16.4206 20.1611 16.2944 20.1611C15.9558 20.1611 15.6636 20.3287 15.1124 20.8443L14.5745 21.3406V20.7992V20.2578L16.7659 18.1308C19.1698 15.7976 19.2495 15.6945 19.0968 15.1982C18.9308 14.6632 18.3862 14.2894 17.9147 14.399C17.8151 14.4247 16.1815 15.0951 14.289 15.8878C12.3964 16.6806 10.8292 17.3251 10.8026 17.3122C10.6233 17.2414 8.99639 16.2101 8.99639 16.1714C8.99639 16.1263 23.028 10.7574 23.1608 10.7509C23.194 10.7509 23.2007 10.8025 23.1808 10.8605Z" fill="white"/>
</g>
</svg>
