<svg width="34" height="33" viewBox="0 0 34 33" fill="none" xmlns="http://www.w3.org/2000/svg">
<g id="Group">
<path id="Vector" d="M17.6938 0.109596C17.5571 0.167618 17.3673 0.303001 17.2762 0.412598L17.1092 0.61245L17.0713 11.7655L17.0333 22.9186L16.8587 23.3376C16.3501 24.5239 15.2645 25.4006 13.8374 25.7617C13.1997 25.9228 12.1748 25.9164 11.4916 25.7359C9.63933 25.2588 8.40953 23.8727 8.39435 22.2417C8.38675 21.1586 8.78151 20.3656 9.70006 19.592C10.5275 18.8958 11.2183 18.6314 12.5089 18.5089C13.1769 18.4445 13.3971 18.3542 13.6855 18.0254C13.8374 17.8514 13.8449 17.774 13.8449 14.9696C13.8449 12.2877 13.8374 12.075 13.7083 11.8945C13.4046 11.4819 13.2756 11.4432 12.0989 11.4496C10.0796 11.469 7.84777 12.0427 5.99548 13.0356C3.54347 14.3378 1.56971 16.4588 0.673934 18.7539C-0.63178 22.0934 -0.0244711 25.5876 2.35922 28.4629C2.97412 29.2043 4.46961 30.4743 5.34262 30.9965C9.97335 33.7687 16.1072 33.6526 20.5253 30.7193C22.6889 29.2816 24.2907 27.2315 24.9966 25.0074C25.4066 23.7051 25.4218 23.4601 25.4218 17.9287C25.4218 15.1243 25.4369 12.8293 25.4521 12.8293C25.4597 12.8293 25.8089 12.9646 26.2264 13.1258C27.2361 13.5255 28.5266 13.8865 29.6729 14.0799C30.7585 14.2669 32.626 14.4152 33.0435 14.3507C33.4079 14.2927 33.8254 13.9768 33.9241 13.6802C33.9696 13.5384 34 12.3844 34 10.7663C34 8.1166 34 8.08437 33.8254 7.8007C33.5825 7.3881 33.332 7.2914 32.3147 7.22049C31.2595 7.14312 30.5308 6.9755 29.635 6.60803C27.7599 5.84086 26.3935 4.48057 25.771 2.77215C25.6495 2.44981 25.528 1.88248 25.4673 1.39897C25.361 0.48996 25.2699 0.315895 24.8069 0.116043C24.5715 0.0128937 24.2451 0 21.2465 0C18.3618 0 17.9139 0.0128937 17.6938 0.109596ZM23.2203 1.96629C23.2203 2.12102 23.4936 3.09449 23.653 3.51354C24.4273 5.5572 26.2644 7.35587 28.5722 8.33579C29.263 8.6259 30.3941 8.9418 31.1153 9.04495L31.6846 9.12876L31.7074 10.7598L31.7226 12.3973L31.2519 12.3522C29.263 12.1588 27.0387 11.4625 25.3838 10.5084C24.8676 10.2118 24.7158 10.1603 24.359 10.1409C23.8276 10.1087 23.5012 10.2699 23.2962 10.6567C23.1519 10.9145 23.1444 11.1531 23.1444 16.9552C23.1444 21.9322 23.1216 23.0862 23.0305 23.5633C22.5522 26.0647 20.8745 28.263 18.3998 29.6233C17.5875 30.0746 17.0257 30.3131 16.1148 30.5775C14.847 30.9514 14.1714 31.0416 12.6683 31.0352C11.5068 31.0352 11.2335 31.0094 10.4896 30.8611C6.3295 30.0359 3.35368 27.4443 2.45031 23.8534C2.25294 23.0927 2.25294 21.3327 2.44272 20.5655C2.62491 19.837 3.03485 18.8119 3.36128 18.264C4.34056 16.6136 6.02584 15.1566 7.93887 14.3249C9.02443 13.8479 10.7021 13.4095 11.4157 13.4095H11.6055L11.5903 15.0276L11.5675 16.6458L11.0285 16.7618C8.68282 17.2711 6.84571 18.8958 6.24599 20.991C6.05621 21.6486 6.07898 22.8928 6.28395 23.5633C6.83053 25.3039 8.26529 26.7094 10.1935 27.3927C11.0817 27.7086 11.6814 27.8053 12.7062 27.8053C13.6931 27.8053 14.308 27.7086 15.1658 27.4185C16.8435 26.8512 18.2479 25.6456 18.9008 24.2144C19.3639 23.2023 19.3487 23.602 19.3487 12.2748V1.93406H21.2845C22.3473 1.93406 23.2203 1.94695 23.2203 1.96629Z" fill="white"/>
</g>
</svg>
