<svg width="50" height="50" viewBox="0 0 50 50" fill="none" xmlns="http://www.w3.org/2000/svg">
<g id="Login">
<path id="Vector" d="M25 25C21.5625 25 18.6198 23.776 16.1719 21.3281C13.724 18.8802 12.5 15.9375 12.5 12.5C12.5 9.0625 13.724 6.11979 16.1719 3.67188C18.6198 1.22396 21.5625 0 25 0C28.4375 0 31.3802 1.22396 33.8281 3.67188C36.276 6.11979 37.5 9.0625 37.5 12.5C37.5 15.9375 36.276 18.8802 33.8281 21.3281C31.3802 23.776 28.4375 25 25 25ZM0 50V41.25C0 39.4792 0.455729 37.8516 1.36719 36.3672C2.27865 34.8828 3.48958 33.75 5 32.9688C8.22917 31.3542 11.5104 30.1432 14.8438 29.3359C18.1771 28.5286 21.5625 28.125 25 28.125C28.4375 28.125 31.8229 28.5286 35.1562 29.3359C38.4896 30.1432 41.7708 31.3542 45 32.9688C46.5104 33.75 47.7214 34.8828 48.6328 36.3672C49.5443 37.8516 50 39.4792 50 41.25V50H0ZM6.25 43.75H43.75V41.25C43.75 40.6771 43.6068 40.1562 43.3203 39.6875C43.0339 39.2188 42.6562 38.8542 42.1875 38.5938C39.375 37.1875 36.5365 36.1328 33.6719 35.4297C30.8073 34.7266 27.9167 34.375 25 34.375C22.0833 34.375 19.1927 34.7266 16.3281 35.4297C13.4635 36.1328 10.625 37.1875 7.8125 38.5938C7.34375 38.8542 6.96615 39.2188 6.67969 39.6875C6.39323 40.1562 6.25 40.6771 6.25 41.25V43.75ZM25 18.75C26.7188 18.75 28.1901 18.138 29.4141 16.9141C30.638 15.6901 31.25 14.2188 31.25 12.5C31.25 10.7812 30.638 9.3099 29.4141 8.08594C28.1901 6.86198 26.7188 6.25 25 6.25C23.2812 6.25 21.8099 6.86198 20.5859 8.08594C19.362 9.3099 18.75 10.7812 18.75 12.5C18.75 14.2188 19.362 15.6901 20.5859 16.9141C21.8099 18.138 23.2812 18.75 25 18.75Z" fill="white"/>
</g>
</svg>
