<svg width="38" height="38" viewBox="0 0 38 38" fill="none" xmlns="http://www.w3.org/2000/svg">
<g id="icon2 1">
<g id="Group">
<path id="Vector" d="M16.9961 1.29887C8.82459 2.30825 2.39724 8.86918 1.55115 17.0629C1.42498 18.2727 1.4992 20.5735 1.70701 21.7387C2.02615 23.5719 2.56052 25.1899 3.39177 26.845L3.8074 27.6762L2.56795 32.211C1.88513 34.7122 1.33591 36.7606 1.35076 36.768C1.3656 36.7829 3.44373 36.2411 5.97459 35.5731C9.65584 34.6008 10.6133 34.3707 10.7617 34.4301C10.8656 34.4672 11.348 34.6825 11.8379 34.9051C13.4261 35.625 15.0961 36.1 16.8551 36.3375C18.0797 36.5008 20.2246 36.5008 21.4121 36.3375C25.316 35.7883 28.7969 34.0664 31.5429 31.3204C32.9828 29.8879 33.9402 28.5743 34.8457 26.7856C35.6621 25.175 36.241 23.4161 36.5676 21.5606C36.7531 20.477 36.7531 17.2782 36.5676 16.1426C36.2484 14.2204 35.7512 12.684 34.9125 10.9844C32.5152 6.15278 28.0918 2.70903 22.8 1.55864C21.1523 1.20238 18.6957 1.09106 16.9961 1.29887ZM21.6347 4.37153C23.7648 4.76488 25.5312 5.47739 27.2754 6.64262C30.259 8.6391 32.4484 11.734 33.3168 15.1629C33.9551 17.6864 33.9031 20.5512 33.1832 22.9782C32.0105 26.8969 29.2273 30.1997 25.5758 31.9809C23.4531 33.02 21.4937 33.4727 19.1113 33.4727C16.3801 33.4727 13.9679 32.8122 11.4965 31.3872L11.0808 31.1497L8.34959 31.8696C6.85037 32.2629 5.60349 32.5747 5.59607 32.5598C5.58123 32.545 5.88552 31.3723 6.27888 29.9473C6.66482 28.5223 6.99138 27.3051 6.99138 27.2457C6.99881 27.1789 6.80584 26.8079 6.56834 26.4219C3.06521 20.7219 3.98552 13.211 8.75779 8.46098C11.1328 6.10082 14.1461 4.64614 17.5156 4.23051C18.4285 4.11918 20.6996 4.20082 21.6347 4.37153Z" fill="white"/>
<path id="Vector_2" d="M12.1793 10.8507C11.7562 11.0585 10.9695 11.9863 10.643 12.6691C9.99726 14.005 10.0121 15.6972 10.6801 17.2558C11.4965 19.1781 13.6414 21.9093 15.7566 23.7203C17.241 24.9894 18.4805 25.739 20.2988 26.4515C22.1617 27.1789 22.518 27.2605 23.75 27.2605C24.7223 27.2605 24.8781 27.2457 25.3234 27.075C26.0656 26.7929 26.6223 26.4441 27.1715 25.9023C27.6019 25.4792 27.691 25.3457 27.832 24.9003C28.0027 24.3363 28.1066 23.4382 28.025 23.1265C27.9879 22.9632 27.7727 22.8296 26.7187 22.3027C24.7891 21.3378 24.0098 21.0039 23.6832 21.0039C23.4086 21.0039 23.3641 21.0335 23.0375 21.464C22.2879 22.4511 21.5977 23.2156 21.4195 23.2601C21.2043 23.3121 20.7812 23.1562 19.809 22.6664C18.2281 21.8796 16.9441 20.8183 15.8383 19.4007C15.2371 18.6289 14.6953 17.7531 14.6953 17.5453C14.6953 17.4636 14.9773 17.0257 15.3187 16.5804C15.9867 15.7121 16.1797 15.3855 16.1797 15.1406C16.1797 15.0589 16.0312 14.6507 15.8605 14.2277C15.6824 13.8121 15.3262 12.9511 15.0664 12.3203C14.7398 11.5335 14.5172 11.0957 14.3539 10.925L14.1164 10.6875H13.3148C12.6395 10.6875 12.4539 10.7171 12.1793 10.8507Z" fill="white"/>
</g>
</g>
</svg>
